<mxfile host="Electron" agent="Mozilla/5.0 (Macintosh; Intel Mac OS X 10_15_7) AppleWebKit/537.36 (KHTML, like Gecko) draw.io/28.1.2 Chrome/138.0.7204.243 Electron/37.4.0 Safari/537.36" version="28.1.2">
  <diagram name="Page-1" id="YAV8I0NIebAqo6Vdpqy7">
    <mxGraphModel dx="1892" dy="2564" grid="1" gridSize="10" guides="1" tooltips="1" connect="1" arrows="1" fold="1" page="1" pageScale="1" pageWidth="850" pageHeight="1100" math="0" shadow="0">
      <root>
        <mxCell id="0" />
        <mxCell id="1" parent="0" />
        <mxCell id="E0kQeSZqlp2RZMd9F31j-29" value="src" style="shape=parallelogram;perimeter=parallelogramPerimeter;whiteSpace=wrap;html=1;fixedSize=1;" vertex="1" parent="1">
          <mxGeometry x="800" y="-260" width="120" height="60" as="geometry" />
        </mxCell>
        <mxCell id="E0kQeSZqlp2RZMd9F31j-87" value="scene" style="shape=parallelogram;perimeter=parallelogramPerimeter;whiteSpace=wrap;html=1;fixedSize=1;" vertex="1" parent="1">
          <mxGeometry x="1030" y="-260" width="120" height="60" as="geometry" />
        </mxCell>
        <mxCell id="E0kQeSZqlp2RZMd9F31j-88" value="graph" style="shape=parallelogram;perimeter=parallelogramPerimeter;whiteSpace=wrap;html=1;fixedSize=1;" vertex="1" parent="1">
          <mxGeometry x="1275" y="-270" width="120" height="60" as="geometry" />
        </mxCell>
        <mxCell id="E0kQeSZqlp2RZMd9F31j-89" value="flow" style="shape=parallelogram;perimeter=parallelogramPerimeter;whiteSpace=wrap;html=1;fixedSize=1;" vertex="1" parent="1">
          <mxGeometry x="1490" y="-270" width="120" height="60" as="geometry" />
        </mxCell>
        <mxCell id="E0kQeSZqlp2RZMd9F31j-90" value="debug" style="shape=parallelogram;perimeter=parallelogramPerimeter;whiteSpace=wrap;html=1;fixedSize=1;" vertex="1" parent="1">
          <mxGeometry x="1730" y="-270" width="120" height="60" as="geometry" />
        </mxCell>
        <mxCell id="E0kQeSZqlp2RZMd9F31j-91" value="data" style="shape=parallelogram;perimeter=parallelogramPerimeter;whiteSpace=wrap;html=1;fixedSize=1;" vertex="1" parent="1">
          <mxGeometry x="1960" y="-270" width="120" height="60" as="geometry" />
        </mxCell>
        <mxCell id="E0kQeSZqlp2RZMd9F31j-92" value="align" style="shape=parallelogram;perimeter=parallelogramPerimeter;whiteSpace=wrap;html=1;fixedSize=1;" vertex="1" parent="1">
          <mxGeometry x="2480" y="-180" width="120" height="60" as="geometry" />
        </mxCell>
        <mxCell id="fcFkuBXIPpViCMy556D--7" value="" style="endArrow=classic;html=1;rounded=0;entryX=0;entryY=0.5;entryDx=0;entryDy=0;" edge="1" parent="1" source="fcFkuBXIPpViCMy556D--1" target="E0kQeSZqlp2RZMd9F31j-109">
          <mxGeometry width="50" height="50" relative="1" as="geometry">
            <mxPoint x="485" y="30" as="sourcePoint" />
            <mxPoint x="535" y="-20" as="targetPoint" />
          </mxGeometry>
        </mxCell>
        <mxCell id="fcFkuBXIPpViCMy556D--8" value="" style="endArrow=classic;html=1;rounded=0;entryX=0;entryY=0.5;entryDx=0;entryDy=0;" edge="1" parent="1" source="fcFkuBXIPpViCMy556D--1" target="E0kQeSZqlp2RZMd9F31j-108">
          <mxGeometry width="50" height="50" relative="1" as="geometry">
            <mxPoint x="515" y="60" as="sourcePoint" />
            <mxPoint x="565" y="10" as="targetPoint" />
          </mxGeometry>
        </mxCell>
        <mxCell id="fcFkuBXIPpViCMy556D--9" value="" style="endArrow=classic;html=1;rounded=0;entryX=0;entryY=0.5;entryDx=0;entryDy=0;" edge="1" parent="1" source="fcFkuBXIPpViCMy556D--1" target="E0kQeSZqlp2RZMd9F31j-106">
          <mxGeometry width="50" height="50" relative="1" as="geometry">
            <mxPoint x="515" y="100" as="sourcePoint" />
            <mxPoint x="565" y="50" as="targetPoint" />
          </mxGeometry>
        </mxCell>
        <mxCell id="fcFkuBXIPpViCMy556D--11" value="" style="endArrow=classic;html=1;rounded=0;entryX=0;entryY=0.5;entryDx=0;entryDy=0;" edge="1" parent="1" source="fcFkuBXIPpViCMy556D--2" target="E0kQeSZqlp2RZMd9F31j-7">
          <mxGeometry width="50" height="50" relative="1" as="geometry">
            <mxPoint x="610" y="280" as="sourcePoint" />
            <mxPoint x="660" y="230" as="targetPoint" />
          </mxGeometry>
        </mxCell>
        <mxCell id="fcFkuBXIPpViCMy556D--12" value="" style="endArrow=classic;html=1;rounded=0;entryX=0;entryY=0.5;entryDx=0;entryDy=0;" edge="1" parent="1" source="fcFkuBXIPpViCMy556D--2" target="E0kQeSZqlp2RZMd9F31j-8">
          <mxGeometry width="50" height="50" relative="1" as="geometry">
            <mxPoint x="590" y="230" as="sourcePoint" />
            <mxPoint x="640" y="180" as="targetPoint" />
          </mxGeometry>
        </mxCell>
        <mxCell id="fcFkuBXIPpViCMy556D--13" value="" style="endArrow=classic;html=1;rounded=0;entryX=0;entryY=0.5;entryDx=0;entryDy=0;" edge="1" parent="1" source="fcFkuBXIPpViCMy556D--2" target="E0kQeSZqlp2RZMd9F31j-9">
          <mxGeometry width="50" height="50" relative="1" as="geometry">
            <mxPoint x="630" y="280" as="sourcePoint" />
            <mxPoint x="680" y="230" as="targetPoint" />
          </mxGeometry>
        </mxCell>
        <mxCell id="fcFkuBXIPpViCMy556D--14" value="" style="endArrow=classic;html=1;rounded=0;entryX=0;entryY=0.5;entryDx=0;entryDy=0;" edge="1" parent="1" source="fcFkuBXIPpViCMy556D--2" target="E0kQeSZqlp2RZMd9F31j-10">
          <mxGeometry width="50" height="50" relative="1" as="geometry">
            <mxPoint x="630" y="260" as="sourcePoint" />
            <mxPoint x="864" y="170" as="targetPoint" />
          </mxGeometry>
        </mxCell>
        <mxCell id="fcFkuBXIPpViCMy556D--15" value="" style="endArrow=classic;html=1;rounded=0;entryX=0;entryY=0.5;entryDx=0;entryDy=0;" edge="1" parent="1" source="fcFkuBXIPpViCMy556D--2" target="E0kQeSZqlp2RZMd9F31j-11">
          <mxGeometry width="50" height="50" relative="1" as="geometry">
            <mxPoint x="550" y="270" as="sourcePoint" />
            <mxPoint x="600" y="220" as="targetPoint" />
          </mxGeometry>
        </mxCell>
        <mxCell id="fcFkuBXIPpViCMy556D--16" value="" style="endArrow=classic;html=1;rounded=0;entryX=0;entryY=0.5;entryDx=0;entryDy=0;" edge="1" parent="1" source="fcFkuBXIPpViCMy556D--2" target="E0kQeSZqlp2RZMd9F31j-12">
          <mxGeometry width="50" height="50" relative="1" as="geometry">
            <mxPoint x="560" y="270" as="sourcePoint" />
            <mxPoint x="610" y="220" as="targetPoint" />
          </mxGeometry>
        </mxCell>
        <mxCell id="fcFkuBXIPpViCMy556D--17" value="" style="endArrow=classic;html=1;rounded=0;entryX=0;entryY=0.5;entryDx=0;entryDy=0;" edge="1" parent="1" source="fcFkuBXIPpViCMy556D--2" target="E0kQeSZqlp2RZMd9F31j-13">
          <mxGeometry width="50" height="50" relative="1" as="geometry">
            <mxPoint x="690" y="260" as="sourcePoint" />
            <mxPoint x="740" y="210" as="targetPoint" />
          </mxGeometry>
        </mxCell>
        <mxCell id="fcFkuBXIPpViCMy556D--18" value="" style="endArrow=classic;html=1;rounded=0;entryX=0;entryY=0.5;entryDx=0;entryDy=0;" edge="1" parent="1" source="fcFkuBXIPpViCMy556D--2" target="E0kQeSZqlp2RZMd9F31j-14">
          <mxGeometry width="50" height="50" relative="1" as="geometry">
            <mxPoint x="630" y="270" as="sourcePoint" />
            <mxPoint x="680" y="220" as="targetPoint" />
          </mxGeometry>
        </mxCell>
        <mxCell id="fcFkuBXIPpViCMy556D--19" value="" style="endArrow=classic;html=1;rounded=0;entryX=0;entryY=0.5;entryDx=0;entryDy=0;" edge="1" parent="1" source="fcFkuBXIPpViCMy556D--2" target="E0kQeSZqlp2RZMd9F31j-15">
          <mxGeometry width="50" height="50" relative="1" as="geometry">
            <mxPoint x="600" y="280" as="sourcePoint" />
            <mxPoint x="862" y="420" as="targetPoint" />
          </mxGeometry>
        </mxCell>
        <mxCell id="fcFkuBXIPpViCMy556D--20" value="" style="endArrow=classic;html=1;rounded=0;entryX=0;entryY=0.5;entryDx=0;entryDy=0;" edge="1" parent="1" source="fcFkuBXIPpViCMy556D--2" target="E0kQeSZqlp2RZMd9F31j-16">
          <mxGeometry width="50" height="50" relative="1" as="geometry">
            <mxPoint x="680" y="290" as="sourcePoint" />
            <mxPoint x="730" y="240" as="targetPoint" />
          </mxGeometry>
        </mxCell>
        <mxCell id="fcFkuBXIPpViCMy556D--21" value="" style="endArrow=classic;html=1;rounded=0;entryX=0;entryY=0.5;entryDx=0;entryDy=0;" edge="1" parent="1" source="fcFkuBXIPpViCMy556D--2" target="E0kQeSZqlp2RZMd9F31j-17">
          <mxGeometry width="50" height="50" relative="1" as="geometry">
            <mxPoint x="650" y="310" as="sourcePoint" />
            <mxPoint x="879" y="520" as="targetPoint" />
          </mxGeometry>
        </mxCell>
        <mxCell id="fcFkuBXIPpViCMy556D--22" value="" style="endArrow=classic;html=1;rounded=0;entryX=0;entryY=0.5;entryDx=0;entryDy=0;" edge="1" parent="1" source="fcFkuBXIPpViCMy556D--2" target="E0kQeSZqlp2RZMd9F31j-18">
          <mxGeometry width="50" height="50" relative="1" as="geometry">
            <mxPoint x="590" y="380" as="sourcePoint" />
            <mxPoint x="640" y="330" as="targetPoint" />
          </mxGeometry>
        </mxCell>
        <mxCell id="fcFkuBXIPpViCMy556D--23" value="" style="endArrow=classic;html=1;rounded=0;entryX=0;entryY=0.5;entryDx=0;entryDy=0;" edge="1" parent="1" source="fcFkuBXIPpViCMy556D--2" target="E0kQeSZqlp2RZMd9F31j-19">
          <mxGeometry width="50" height="50" relative="1" as="geometry">
            <mxPoint x="530" y="410" as="sourcePoint" />
            <mxPoint x="580" y="360" as="targetPoint" />
          </mxGeometry>
        </mxCell>
        <mxCell id="fcFkuBXIPpViCMy556D--24" value="" style="endArrow=classic;html=1;rounded=0;entryX=0;entryY=0.5;entryDx=0;entryDy=0;" edge="1" parent="1" source="fcFkuBXIPpViCMy556D--2" target="E0kQeSZqlp2RZMd9F31j-20">
          <mxGeometry width="50" height="50" relative="1" as="geometry">
            <mxPoint x="660" y="390" as="sourcePoint" />
            <mxPoint x="710" y="340" as="targetPoint" />
          </mxGeometry>
        </mxCell>
        <mxCell id="fcFkuBXIPpViCMy556D--25" value="" style="endArrow=classic;html=1;rounded=0;entryX=0;entryY=0.5;entryDx=0;entryDy=0;" edge="1" parent="1" source="fcFkuBXIPpViCMy556D--2" target="E0kQeSZqlp2RZMd9F31j-21">
          <mxGeometry width="50" height="50" relative="1" as="geometry">
            <mxPoint x="440" y="440" as="sourcePoint" />
            <mxPoint x="490" y="390" as="targetPoint" />
          </mxGeometry>
        </mxCell>
        <mxCell id="fcFkuBXIPpViCMy556D--26" value="" style="endArrow=classic;html=1;rounded=0;entryX=0;entryY=0.5;entryDx=0;entryDy=0;" edge="1" parent="1" source="fcFkuBXIPpViCMy556D--2" target="E0kQeSZqlp2RZMd9F31j-22">
          <mxGeometry width="50" height="50" relative="1" as="geometry">
            <mxPoint x="590" y="510" as="sourcePoint" />
            <mxPoint x="790" y="790" as="targetPoint" />
          </mxGeometry>
        </mxCell>
        <mxCell id="fcFkuBXIPpViCMy556D--27" value="" style="endArrow=classic;html=1;rounded=0;entryX=0;entryY=0.5;entryDx=0;entryDy=0;" edge="1" parent="1" source="fcFkuBXIPpViCMy556D--2" target="E0kQeSZqlp2RZMd9F31j-23">
          <mxGeometry width="50" height="50" relative="1" as="geometry">
            <mxPoint x="520" y="510" as="sourcePoint" />
            <mxPoint x="570" y="460" as="targetPoint" />
          </mxGeometry>
        </mxCell>
        <mxCell id="fcFkuBXIPpViCMy556D--28" value="" style="endArrow=classic;html=1;rounded=0;entryX=0;entryY=0.5;entryDx=0;entryDy=0;" edge="1" parent="1" source="fcFkuBXIPpViCMy556D--2" target="E0kQeSZqlp2RZMd9F31j-24">
          <mxGeometry width="50" height="50" relative="1" as="geometry">
            <mxPoint x="410" y="530" as="sourcePoint" />
            <mxPoint x="460" y="480" as="targetPoint" />
          </mxGeometry>
        </mxCell>
        <mxCell id="fcFkuBXIPpViCMy556D--29" value="" style="endArrow=classic;html=1;rounded=0;entryX=0;entryY=0.5;entryDx=0;entryDy=0;" edge="1" parent="1" source="fcFkuBXIPpViCMy556D--2" target="E0kQeSZqlp2RZMd9F31j-25">
          <mxGeometry width="50" height="50" relative="1" as="geometry">
            <mxPoint x="550" y="510" as="sourcePoint" />
            <mxPoint x="600" y="460" as="targetPoint" />
          </mxGeometry>
        </mxCell>
        <mxCell id="fcFkuBXIPpViCMy556D--30" value="" style="endArrow=classic;html=1;rounded=0;entryX=0;entryY=0.5;entryDx=0;entryDy=0;" edge="1" parent="1" source="fcFkuBXIPpViCMy556D--2" target="E0kQeSZqlp2RZMd9F31j-26">
          <mxGeometry width="50" height="50" relative="1" as="geometry">
            <mxPoint x="540" y="650" as="sourcePoint" />
            <mxPoint x="590" y="600" as="targetPoint" />
          </mxGeometry>
        </mxCell>
        <mxCell id="fcFkuBXIPpViCMy556D--31" value="" style="endArrow=classic;html=1;rounded=0;entryX=0;entryY=0.5;entryDx=0;entryDy=0;" edge="1" parent="1" source="fcFkuBXIPpViCMy556D--2" target="E0kQeSZqlp2RZMd9F31j-27">
          <mxGeometry width="50" height="50" relative="1" as="geometry">
            <mxPoint x="1160" y="800" as="sourcePoint" />
            <mxPoint x="1210" y="750" as="targetPoint" />
          </mxGeometry>
        </mxCell>
        <mxCell id="fcFkuBXIPpViCMy556D--32" value="" style="endArrow=classic;html=1;rounded=0;entryX=0;entryY=0.5;entryDx=0;entryDy=0;" edge="1" parent="1" source="fcFkuBXIPpViCMy556D--2" target="E0kQeSZqlp2RZMd9F31j-28">
          <mxGeometry width="50" height="50" relative="1" as="geometry">
            <mxPoint x="1080" y="650" as="sourcePoint" />
            <mxPoint x="867" y="1070" as="targetPoint" />
          </mxGeometry>
        </mxCell>
        <mxCell id="fcFkuBXIPpViCMy556D--33" value="" style="curved=1;endArrow=classic;html=1;rounded=0;exitX=1;exitY=0.5;exitDx=0;exitDy=0;entryX=0;entryY=0.5;entryDx=0;entryDy=0;" edge="1" parent="1" source="E0kQeSZqlp2RZMd9F31j-109" target="E0kQeSZqlp2RZMd9F31j-94">
          <mxGeometry width="50" height="50" relative="1" as="geometry">
            <mxPoint x="640" y="320" as="sourcePoint" />
            <mxPoint x="690" y="270" as="targetPoint" />
            <Array as="points">
              <mxPoint x="1030" y="30" />
              <mxPoint x="1250" y="70" />
            </Array>
          </mxGeometry>
        </mxCell>
        <mxCell id="fcFkuBXIPpViCMy556D--34" value="" style="curved=1;endArrow=classic;html=1;rounded=0;exitX=1;exitY=0.5;exitDx=0;exitDy=0;entryX=0;entryY=0.5;entryDx=0;entryDy=0;" edge="1" parent="1" source="E0kQeSZqlp2RZMd9F31j-108" target="E0kQeSZqlp2RZMd9F31j-95">
          <mxGeometry width="50" height="50" relative="1" as="geometry">
            <mxPoint x="680" y="240" as="sourcePoint" />
            <mxPoint x="730" y="190" as="targetPoint" />
            <Array as="points" />
          </mxGeometry>
        </mxCell>
        <mxCell id="fcFkuBXIPpViCMy556D--35" value="" style="curved=1;endArrow=classic;html=1;rounded=0;exitX=1;exitY=0.5;exitDx=0;exitDy=0;entryX=0;entryY=0.5;entryDx=0;entryDy=0;" edge="1" parent="1" source="E0kQeSZqlp2RZMd9F31j-106" target="E0kQeSZqlp2RZMd9F31j-112">
          <mxGeometry width="50" height="50" relative="1" as="geometry">
            <mxPoint x="760" y="250" as="sourcePoint" />
            <mxPoint x="810" y="200" as="targetPoint" />
            <Array as="points">
              <mxPoint x="1050" y="130" />
            </Array>
          </mxGeometry>
        </mxCell>
        <mxCell id="fcFkuBXIPpViCMy556D--36" value="" style="curved=1;endArrow=classic;html=1;rounded=0;exitX=1;exitY=0.5;exitDx=0;exitDy=0;entryX=0;entryY=0.5;entryDx=0;entryDy=0;" edge="1" parent="1" source="E0kQeSZqlp2RZMd9F31j-94" target="E0kQeSZqlp2RZMd9F31j-97">
          <mxGeometry width="50" height="50" relative="1" as="geometry">
            <mxPoint x="1490" y="180" as="sourcePoint" />
            <mxPoint x="1540" y="130" as="targetPoint" />
            <Array as="points">
              <mxPoint x="1430" y="69" />
              <mxPoint x="1260" y="240" />
            </Array>
          </mxGeometry>
        </mxCell>
        <mxCell id="fcFkuBXIPpViCMy556D--37" value="" style="curved=1;endArrow=classic;html=1;rounded=0;exitX=1;exitY=0.5;exitDx=0;exitDy=0;entryX=0;entryY=0.5;entryDx=0;entryDy=0;" edge="1" parent="1" source="E0kQeSZqlp2RZMd9F31j-94" target="E0kQeSZqlp2RZMd9F31j-104">
          <mxGeometry width="50" height="50" relative="1" as="geometry">
            <mxPoint x="1450" y="140" as="sourcePoint" />
            <mxPoint x="1500" y="90" as="targetPoint" />
            <Array as="points">
              <mxPoint x="1440" y="69" />
              <mxPoint x="1260" y="310" />
            </Array>
          </mxGeometry>
        </mxCell>
        <mxCell id="fcFkuBXIPpViCMy556D--38" value="" style="curved=1;endArrow=classic;html=1;rounded=0;exitX=1;exitY=0.5;exitDx=0;exitDy=0;entryX=0;entryY=0.5;entryDx=0;entryDy=0;" edge="1" parent="1" source="E0kQeSZqlp2RZMd9F31j-95" target="E0kQeSZqlp2RZMd9F31j-97">
          <mxGeometry width="50" height="50" relative="1" as="geometry">
            <mxPoint x="1440" y="160" as="sourcePoint" />
            <mxPoint x="1490" y="110" as="targetPoint" />
            <Array as="points">
              <mxPoint x="1440" y="130" />
              <mxPoint x="1270" y="240" />
            </Array>
          </mxGeometry>
        </mxCell>
        <mxCell id="fcFkuBXIPpViCMy556D--39" value="" style="curved=1;endArrow=classic;html=1;rounded=0;exitX=1;exitY=0.5;exitDx=0;exitDy=0;entryX=0;entryY=0.5;entryDx=0;entryDy=0;" edge="1" parent="1" source="E0kQeSZqlp2RZMd9F31j-95" target="E0kQeSZqlp2RZMd9F31j-104">
          <mxGeometry width="50" height="50" relative="1" as="geometry">
            <mxPoint x="1440" y="145" as="sourcePoint" />
            <mxPoint x="1490" y="95" as="targetPoint" />
            <Array as="points">
              <mxPoint x="1450" y="130" />
              <mxPoint x="1260" y="300" />
            </Array>
          </mxGeometry>
        </mxCell>
        <mxCell id="fcFkuBXIPpViCMy556D--40" value="" style="curved=1;endArrow=classic;html=1;rounded=0;exitX=1;exitY=0.5;exitDx=0;exitDy=0;entryX=0;entryY=0.5;entryDx=0;entryDy=0;" edge="1" parent="1" source="E0kQeSZqlp2RZMd9F31j-112" target="E0kQeSZqlp2RZMd9F31j-104">
          <mxGeometry width="50" height="50" relative="1" as="geometry">
            <mxPoint x="1440" y="250" as="sourcePoint" />
            <mxPoint x="1490" y="200" as="targetPoint" />
            <Array as="points">
              <mxPoint x="1460" y="180" />
              <mxPoint x="1280" y="300" />
            </Array>
          </mxGeometry>
        </mxCell>
        <mxCell id="fcFkuBXIPpViCMy556D--41" value="" style="curved=1;endArrow=classic;html=1;rounded=0;exitX=1;exitY=0.5;exitDx=0;exitDy=0;entryX=0;entryY=0.5;entryDx=0;entryDy=0;" edge="1" parent="1" source="E0kQeSZqlp2RZMd9F31j-96" target="E0kQeSZqlp2RZMd9F31j-119">
          <mxGeometry width="50" height="50" relative="1" as="geometry">
            <mxPoint x="1450" y="340" as="sourcePoint" />
            <mxPoint x="1500" y="290" as="targetPoint" />
            <Array as="points">
              <mxPoint x="1430" y="220" />
              <mxPoint x="1270" y="450" />
            </Array>
          </mxGeometry>
        </mxCell>
        <mxCell id="fcFkuBXIPpViCMy556D--42" value="" style="curved=1;endArrow=classic;html=1;rounded=0;exitX=1;exitY=0.5;exitDx=0;exitDy=0;entryX=0;entryY=0.5;entryDx=0;entryDy=0;" edge="1" parent="1" source="E0kQeSZqlp2RZMd9F31j-122" target="E0kQeSZqlp2RZMd9F31j-97">
          <mxGeometry width="50" height="50" relative="1" as="geometry">
            <mxPoint x="1510" y="430" as="sourcePoint" />
            <mxPoint x="1560" y="380" as="targetPoint" />
            <Array as="points">
              <mxPoint x="1490" y="550" />
              <mxPoint x="1270" y="310" />
            </Array>
          </mxGeometry>
        </mxCell>
        <mxCell id="fcFkuBXIPpViCMy556D--44" value="" style="curved=1;endArrow=classic;html=1;rounded=0;exitX=1;exitY=0.5;exitDx=0;exitDy=0;entryX=0;entryY=0.5;entryDx=0;entryDy=0;" edge="1" parent="1" source="E0kQeSZqlp2RZMd9F31j-122" target="E0kQeSZqlp2RZMd9F31j-104">
          <mxGeometry width="50" height="50" relative="1" as="geometry">
            <mxPoint x="1600" y="520" as="sourcePoint" />
            <mxPoint x="1260" y="340" as="targetPoint" />
            <Array as="points">
              <mxPoint x="1500" y="540" />
              <mxPoint x="1270" y="340" />
            </Array>
          </mxGeometry>
        </mxCell>
        <mxCell id="fcFkuBXIPpViCMy556D--45" value="" style="curved=1;endArrow=classic;html=1;rounded=0;exitX=1;exitY=0.5;exitDx=0;exitDy=0;entryX=0;entryY=0.5;entryDx=0;entryDy=0;" edge="1" parent="1" source="E0kQeSZqlp2RZMd9F31j-18" target="E0kQeSZqlp2RZMd9F31j-116">
          <mxGeometry width="50" height="50" relative="1" as="geometry">
            <mxPoint x="1000" y="560" as="sourcePoint" />
            <mxPoint x="1050" y="510" as="targetPoint" />
            <Array as="points">
              <mxPoint x="890" y="730" />
              <mxPoint x="1180" y="369" />
            </Array>
          </mxGeometry>
        </mxCell>
        <mxCell id="fcFkuBXIPpViCMy556D--46" value="" style="curved=1;endArrow=classic;html=1;rounded=0;exitX=1;exitY=0.5;exitDx=0;exitDy=0;entryX=0;entryY=0.5;entryDx=0;entryDy=0;" edge="1" parent="1" source="E0kQeSZqlp2RZMd9F31j-9" target="E0kQeSZqlp2RZMd9F31j-97">
          <mxGeometry width="50" height="50" relative="1" as="geometry">
            <mxPoint x="940" y="310" as="sourcePoint" />
            <mxPoint x="990" y="260" as="targetPoint" />
            <Array as="points">
              <mxPoint x="1160" y="260" />
            </Array>
          </mxGeometry>
        </mxCell>
        <mxCell id="fcFkuBXIPpViCMy556D--47" value="" style="curved=1;endArrow=classic;html=1;rounded=0;exitX=1;exitY=0.5;exitDx=0;exitDy=0;entryX=0;entryY=0.5;entryDx=0;entryDy=0;" edge="1" parent="1" source="E0kQeSZqlp2RZMd9F31j-10" target="E0kQeSZqlp2RZMd9F31j-97">
          <mxGeometry width="50" height="50" relative="1" as="geometry">
            <mxPoint x="960" y="310" as="sourcePoint" />
            <mxPoint x="1010" y="260" as="targetPoint" />
            <Array as="points">
              <mxPoint x="840" y="340" />
              <mxPoint x="1220" y="270" />
            </Array>
          </mxGeometry>
        </mxCell>
        <mxCell id="fcFkuBXIPpViCMy556D--48" value="" style="curved=1;endArrow=classic;html=1;rounded=0;exitX=1;exitY=0.5;exitDx=0;exitDy=0;entryX=0;entryY=0.5;entryDx=0;entryDy=0;" edge="1" parent="1" source="E0kQeSZqlp2RZMd9F31j-11" target="E0kQeSZqlp2RZMd9F31j-97">
          <mxGeometry width="50" height="50" relative="1" as="geometry">
            <mxPoint x="960" y="320" as="sourcePoint" />
            <mxPoint x="1010" y="270" as="targetPoint" />
            <Array as="points">
              <mxPoint x="880" y="390" />
              <mxPoint x="1180" y="280" />
            </Array>
          </mxGeometry>
        </mxCell>
        <mxCell id="fcFkuBXIPpViCMy556D--49" value="" style="curved=1;endArrow=classic;html=1;rounded=0;exitX=1;exitY=0.5;exitDx=0;exitDy=0;entryX=0;entryY=0.5;entryDx=0;entryDy=0;" edge="1" parent="1" source="E0kQeSZqlp2RZMd9F31j-12" target="E0kQeSZqlp2RZMd9F31j-97">
          <mxGeometry width="50" height="50" relative="1" as="geometry">
            <mxPoint x="940" y="330" as="sourcePoint" />
            <mxPoint x="990" y="280" as="targetPoint" />
            <Array as="points">
              <mxPoint x="880" y="440" />
              <mxPoint x="1120" y="320" />
            </Array>
          </mxGeometry>
        </mxCell>
        <mxCell id="fcFkuBXIPpViCMy556D--53" value="" style="endArrow=classic;html=1;rounded=0;entryX=0;entryY=0.5;entryDx=0;entryDy=0;" edge="1" parent="1" source="fcFkuBXIPpViCMy556D--3" target="E0kQeSZqlp2RZMd9F31j-94">
          <mxGeometry width="50" height="50" relative="1" as="geometry">
            <mxPoint x="1520" y="60" as="sourcePoint" />
            <mxPoint x="1570" y="10" as="targetPoint" />
          </mxGeometry>
        </mxCell>
        <mxCell id="fcFkuBXIPpViCMy556D--54" value="" style="endArrow=classic;html=1;rounded=0;entryX=0;entryY=0.5;entryDx=0;entryDy=0;" edge="1" parent="1" source="fcFkuBXIPpViCMy556D--3" target="E0kQeSZqlp2RZMd9F31j-95">
          <mxGeometry width="50" height="50" relative="1" as="geometry">
            <mxPoint x="1120" y="50" as="sourcePoint" />
            <mxPoint x="1170" as="targetPoint" />
          </mxGeometry>
        </mxCell>
        <mxCell id="fcFkuBXIPpViCMy556D--55" value="" style="endArrow=classic;html=1;rounded=0;entryX=0;entryY=0.5;entryDx=0;entryDy=0;" edge="1" parent="1" source="fcFkuBXIPpViCMy556D--3" target="E0kQeSZqlp2RZMd9F31j-112">
          <mxGeometry width="50" height="50" relative="1" as="geometry">
            <mxPoint x="1210" y="180" as="sourcePoint" />
            <mxPoint x="1260" y="130" as="targetPoint" />
          </mxGeometry>
        </mxCell>
        <mxCell id="fcFkuBXIPpViCMy556D--56" value="" style="endArrow=classic;html=1;rounded=0;entryX=0;entryY=0.5;entryDx=0;entryDy=0;" edge="1" parent="1" source="fcFkuBXIPpViCMy556D--3" target="E0kQeSZqlp2RZMd9F31j-96">
          <mxGeometry width="50" height="50" relative="1" as="geometry">
            <mxPoint x="1480" y="150" as="sourcePoint" />
            <mxPoint x="1530" y="100" as="targetPoint" />
          </mxGeometry>
        </mxCell>
        <mxCell id="fcFkuBXIPpViCMy556D--57" value="" style="endArrow=classic;html=1;rounded=0;entryX=0;entryY=0.5;entryDx=0;entryDy=0;" edge="1" parent="1" source="fcFkuBXIPpViCMy556D--3" target="E0kQeSZqlp2RZMd9F31j-97">
          <mxGeometry width="50" height="50" relative="1" as="geometry">
            <mxPoint x="1190" y="180" as="sourcePoint" />
            <mxPoint x="1240" y="130" as="targetPoint" />
          </mxGeometry>
        </mxCell>
        <mxCell id="fcFkuBXIPpViCMy556D--58" value="" style="endArrow=classic;html=1;rounded=0;entryX=0;entryY=0.5;entryDx=0;entryDy=0;" edge="1" parent="1" source="fcFkuBXIPpViCMy556D--3" target="E0kQeSZqlp2RZMd9F31j-104">
          <mxGeometry width="50" height="50" relative="1" as="geometry">
            <mxPoint x="1500" y="230" as="sourcePoint" />
            <mxPoint x="1550" y="180" as="targetPoint" />
          </mxGeometry>
        </mxCell>
        <mxCell id="fcFkuBXIPpViCMy556D--59" value="" style="endArrow=classic;html=1;rounded=0;entryX=0;entryY=0.5;entryDx=0;entryDy=0;" edge="1" parent="1" source="fcFkuBXIPpViCMy556D--3" target="E0kQeSZqlp2RZMd9F31j-116">
          <mxGeometry width="50" height="50" relative="1" as="geometry">
            <mxPoint x="1210" y="410" as="sourcePoint" />
            <mxPoint x="1260" y="360" as="targetPoint" />
          </mxGeometry>
        </mxCell>
        <mxCell id="fcFkuBXIPpViCMy556D--60" value="" style="endArrow=classic;html=1;rounded=0;entryX=0;entryY=0.5;entryDx=0;entryDy=0;" edge="1" parent="1" source="fcFkuBXIPpViCMy556D--3" target="E0kQeSZqlp2RZMd9F31j-118">
          <mxGeometry width="50" height="50" relative="1" as="geometry">
            <mxPoint x="1180" y="400" as="sourcePoint" />
            <mxPoint x="1230" y="350" as="targetPoint" />
          </mxGeometry>
        </mxCell>
        <mxCell id="fcFkuBXIPpViCMy556D--61" value="" style="endArrow=classic;html=1;rounded=0;entryX=0;entryY=0.5;entryDx=0;entryDy=0;" edge="1" parent="1" source="fcFkuBXIPpViCMy556D--3" target="E0kQeSZqlp2RZMd9F31j-119">
          <mxGeometry width="50" height="50" relative="1" as="geometry">
            <mxPoint x="1180" y="450" as="sourcePoint" />
            <mxPoint x="1230" y="400" as="targetPoint" />
          </mxGeometry>
        </mxCell>
        <mxCell id="fcFkuBXIPpViCMy556D--62" value="" style="endArrow=classic;html=1;rounded=0;entryX=0;entryY=0.5;entryDx=0;entryDy=0;" edge="1" parent="1" source="fcFkuBXIPpViCMy556D--3" target="E0kQeSZqlp2RZMd9F31j-121">
          <mxGeometry width="50" height="50" relative="1" as="geometry">
            <mxPoint x="1200" y="410" as="sourcePoint" />
            <mxPoint x="1250" y="360" as="targetPoint" />
          </mxGeometry>
        </mxCell>
        <mxCell id="fcFkuBXIPpViCMy556D--63" value="" style="endArrow=classic;html=1;rounded=0;entryX=0;entryY=0.5;entryDx=0;entryDy=0;" edge="1" parent="1" source="fcFkuBXIPpViCMy556D--3" target="E0kQeSZqlp2RZMd9F31j-122">
          <mxGeometry width="50" height="50" relative="1" as="geometry">
            <mxPoint x="1180" y="460" as="sourcePoint" />
            <mxPoint x="1230" y="410" as="targetPoint" />
          </mxGeometry>
        </mxCell>
        <mxCell id="fcFkuBXIPpViCMy556D--1" value="BROWSER WINDOW" style="shape=cube;whiteSpace=wrap;html=1;boundedLbl=1;backgroundOutline=1;darkOpacity=0.05;darkOpacity2=0.1;" vertex="1" parent="1">
          <mxGeometry x="690" y="-120" width="150" height="80" as="geometry" />
        </mxCell>
        <mxCell id="fcFkuBXIPpViCMy556D--2" value="CONFIG.JS" style="shape=cube;whiteSpace=wrap;html=1;boundedLbl=1;backgroundOutline=1;darkOpacity=0.05;darkOpacity2=0.1;" vertex="1" parent="1">
          <mxGeometry x="130" y="99.99999999999999" width="165" height="80" as="geometry" />
        </mxCell>
        <mxCell id="E0kQeSZqlp2RZMd9F31j-10" value="CAMERA_NEAR: number" style="rounded=0;whiteSpace=wrap;html=1;" vertex="1" parent="1">
          <mxGeometry x="680" y="330" width="120" height="40" as="geometry" />
        </mxCell>
        <mxCell id="E0kQeSZqlp2RZMd9F31j-11" value="CAMERA_FAR: number" style="rounded=0;whiteSpace=wrap;html=1;" vertex="1" parent="1">
          <mxGeometry x="680" y="380" width="120" height="40" as="geometry" />
        </mxCell>
        <mxCell id="E0kQeSZqlp2RZMd9F31j-12" value="CAMERA_Z:&amp;nbsp;&lt;div&gt;number&lt;/div&gt;" style="rounded=0;whiteSpace=wrap;html=1;" vertex="1" parent="1">
          <mxGeometry x="680" y="430" width="120" height="40" as="geometry" />
        </mxCell>
        <mxCell id="E0kQeSZqlp2RZMd9F31j-13" value="SPRITE_COLOR:&amp;nbsp;&lt;div&gt;CSS color&lt;/div&gt;" style="rounded=0;whiteSpace=wrap;html=1;" vertex="1" parent="1">
          <mxGeometry x="680" y="480" width="120" height="40" as="geometry" />
        </mxCell>
        <mxCell id="E0kQeSZqlp2RZMd9F31j-14" value="SPRITE_FONT_SIZE:&lt;div&gt;number&lt;/div&gt;" style="rounded=0;whiteSpace=wrap;html=1;" vertex="1" parent="1">
          <mxGeometry x="680" y="530" width="120" height="40" as="geometry" />
        </mxCell>
        <mxCell id="E0kQeSZqlp2RZMd9F31j-15" value="SPRITE_PADDING:&lt;div&gt;number&lt;/div&gt;" style="rounded=0;whiteSpace=wrap;html=1;" vertex="1" parent="1">
          <mxGeometry x="680" y="580" width="120" height="40" as="geometry" />
        </mxCell>
        <mxCell id="E0kQeSZqlp2RZMd9F31j-16" value="SPRITE_SHADOW_BLUR: number" style="rounded=0;whiteSpace=wrap;html=1;" vertex="1" parent="1">
          <mxGeometry x="680" y="630" width="150" height="40" as="geometry" />
        </mxCell>
        <mxCell id="E0kQeSZqlp2RZMd9F31j-17" value="SPRITE_SCALE_DIVISOR: number" style="rounded=0;whiteSpace=wrap;html=1;" vertex="1" parent="1">
          <mxGeometry x="680" y="680" width="150" height="40" as="geometry" />
        </mxCell>
        <mxCell id="E0kQeSZqlp2RZMd9F31j-18" value="SPRITE_THRESHOLD:&amp;nbsp;&lt;div&gt;number&lt;/div&gt;" style="rounded=0;whiteSpace=wrap;html=1;" vertex="1" parent="1">
          <mxGeometry x="680" y="730" width="140" height="40" as="geometry" />
        </mxCell>
        <mxCell id="E0kQeSZqlp2RZMd9F31j-19" value="LINE_COLOR:&lt;div&gt;number (hex)&lt;/div&gt;" style="rounded=0;whiteSpace=wrap;html=1;" vertex="1" parent="1">
          <mxGeometry x="680" y="780" width="140" height="40" as="geometry" />
        </mxCell>
        <mxCell id="E0kQeSZqlp2RZMd9F31j-20" value="CLICK_THRESHOLD_PX:&lt;div&gt;number&lt;/div&gt;" style="rounded=0;whiteSpace=wrap;html=1;" vertex="1" parent="1">
          <mxGeometry x="680" y="830" width="150" height="40" as="geometry" />
        </mxCell>
        <mxCell id="E0kQeSZqlp2RZMd9F31j-21" value="INVERT_X:&lt;div&gt;boolean&lt;/div&gt;" style="rounded=0;whiteSpace=wrap;html=1;" vertex="1" parent="1">
          <mxGeometry x="680" y="880" width="90" height="40" as="geometry" />
        </mxCell>
        <mxCell id="E0kQeSZqlp2RZMd9F31j-22" value="INVERT_Y:&lt;br&gt;boolean" style="rounded=0;whiteSpace=wrap;html=1;" vertex="1" parent="1">
          <mxGeometry x="680" y="930" width="90" height="40" as="geometry" />
        </mxCell>
        <mxCell id="E0kQeSZqlp2RZMd9F31j-23" value="ROT_SPEED:&amp;nbsp;&lt;div&gt;number&lt;/div&gt;" style="rounded=0;whiteSpace=wrap;html=1;" vertex="1" parent="1">
          <mxGeometry x="680" y="980" width="90" height="40" as="geometry" />
        </mxCell>
        <mxCell id="E0kQeSZqlp2RZMd9F31j-24" value="INERTIA_DECAY:&lt;div&gt;number&lt;/div&gt;" style="rounded=0;whiteSpace=wrap;html=1;" vertex="1" parent="1">
          <mxGeometry x="680" y="1030" width="110" height="40" as="geometry" />
        </mxCell>
        <mxCell id="E0kQeSZqlp2RZMd9F31j-25" value="VELOCITY_EPS:&lt;div&gt;number&lt;/div&gt;" style="rounded=0;whiteSpace=wrap;html=1;" vertex="1" parent="1">
          <mxGeometry x="680" y="1080" width="110" height="40" as="geometry" />
        </mxCell>
        <mxCell id="E0kQeSZqlp2RZMd9F31j-26" value="ANIM_TRANSLATE_MS:&lt;div&gt;number&lt;/div&gt;" style="rounded=0;whiteSpace=wrap;html=1;" vertex="1" parent="1">
          <mxGeometry x="680" y="1130" width="140" height="40" as="geometry" />
        </mxCell>
        <mxCell id="E0kQeSZqlp2RZMd9F31j-27" value="ANIM_EXPAND_MS:&lt;div&gt;number&lt;/div&gt;" style="rounded=0;whiteSpace=wrap;html=1;" vertex="1" parent="1">
          <mxGeometry x="680" y="1180" width="120" height="40" as="geometry" />
        </mxCell>
        <mxCell id="E0kQeSZqlp2RZMd9F31j-28" value="TRANSITION_MODE:&lt;br&gt;serial || parallel" style="rounded=0;whiteSpace=wrap;html=1;" vertex="1" parent="1">
          <mxGeometry x="680" y="1230" width="130" height="40" as="geometry" />
        </mxCell>
        <mxCell id="E0kQeSZqlp2RZMd9F31j-106" value="devicePixelRatio:&lt;div&gt;number&lt;/div&gt;" style="rounded=0;whiteSpace=wrap;html=1;" vertex="1" parent="1">
          <mxGeometry x="870" y="110" width="120" height="40" as="geometry" />
        </mxCell>
        <mxCell id="E0kQeSZqlp2RZMd9F31j-108" value="width:&lt;div&gt;number&lt;/div&gt;" style="rounded=0;whiteSpace=wrap;html=1;" vertex="1" parent="1">
          <mxGeometry x="870" y="60" width="120" height="40" as="geometry" />
        </mxCell>
        <mxCell id="E0kQeSZqlp2RZMd9F31j-109" value="&lt;div&gt;height:&lt;/div&gt;&lt;div&gt;number&lt;/div&gt;" style="rounded=0;whiteSpace=wrap;html=1;" vertex="1" parent="1">
          <mxGeometry x="870" y="10" width="120" height="40" as="geometry" />
        </mxCell>
        <mxCell id="E0kQeSZqlp2RZMd9F31j-7" value="API_BASE:&amp;nbsp;&lt;div&gt;JS object&lt;/div&gt;" style="rounded=0;whiteSpace=wrap;html=1;" vertex="1" parent="1">
          <mxGeometry x="680" y="180" width="120" height="40" as="geometry" />
        </mxCell>
        <mxCell id="E0kQeSZqlp2RZMd9F31j-8" value="INITIAL_TERM_ID:&amp;nbsp; string" style="rounded=0;whiteSpace=wrap;html=1;" vertex="1" parent="1">
          <mxGeometry x="680" y="230" width="120" height="40" as="geometry" />
        </mxCell>
        <mxCell id="E0kQeSZqlp2RZMd9F31j-9" value="CAMERA_FOV: number" style="rounded=0;whiteSpace=wrap;html=1;" vertex="1" parent="1">
          <mxGeometry x="680" y="280" width="120" height="40" as="geometry" />
        </mxCell>
        <mxCell id="E0kQeSZqlp2RZMd9F31j-94" value="HEIGHT:&amp;nbsp;&lt;div&gt;number&lt;/div&gt;" style="rounded=0;whiteSpace=wrap;html=1;" vertex="1" parent="1">
          <mxGeometry x="1290" y="50" width="120" height="37.78" as="geometry" />
        </mxCell>
        <mxCell id="E0kQeSZqlp2RZMd9F31j-95" value="WIDTH:&amp;nbsp;&lt;div&gt;number&lt;/div&gt;" style="rounded=0;whiteSpace=wrap;html=1;" vertex="1" parent="1">
          <mxGeometry x="1290" y="100" width="120" height="40" as="geometry" />
        </mxCell>
        <mxCell id="E0kQeSZqlp2RZMd9F31j-96" value="scene:&amp;nbsp;&lt;div&gt;THREE.Scene&lt;/div&gt;" style="rounded=0;whiteSpace=wrap;html=1;" vertex="1" parent="1">
          <mxGeometry x="1290" y="200" width="120" height="40" as="geometry" />
        </mxCell>
        <mxCell id="E0kQeSZqlp2RZMd9F31j-97" value="camera:&amp;nbsp;&lt;div&gt;THREE.PerspectiveCamera( ... )&lt;/div&gt;" style="rounded=0;whiteSpace=wrap;html=1;" vertex="1" parent="1">
          <mxGeometry x="1290" y="250" width="180" height="40" as="geometry" />
        </mxCell>
        <mxCell id="E0kQeSZqlp2RZMd9F31j-104" value="renderer:&amp;nbsp;&lt;div&gt;THREE.WebGLRenderer&lt;/div&gt;" style="rounded=0;whiteSpace=wrap;html=1;" vertex="1" parent="1">
          <mxGeometry x="1290" y="302.22" width="180" height="37.78" as="geometry" />
        </mxCell>
        <mxCell id="E0kQeSZqlp2RZMd9F31j-112" value="DEVICE_PIXEL_RATIO:&amp;nbsp;&lt;div&gt;number&lt;/div&gt;" style="rounded=0;whiteSpace=wrap;html=1;" vertex="1" parent="1">
          <mxGeometry x="1290" y="150" width="150" height="40" as="geometry" />
        </mxCell>
        <mxCell id="E0kQeSZqlp2RZMd9F31j-116" value="raycaster:&amp;nbsp;&lt;div&gt;THREE.Raycaster&lt;/div&gt;" style="rounded=0;whiteSpace=wrap;html=1;" vertex="1" parent="1">
          <mxGeometry x="1290" y="350" width="180" height="37.78" as="geometry" />
        </mxCell>
        <mxCell id="E0kQeSZqlp2RZMd9F31j-118" value="mouse:&amp;nbsp;&lt;div&gt;THREE.Vector2&lt;/div&gt;" style="rounded=0;whiteSpace=wrap;html=1;" vertex="1" parent="1">
          <mxGeometry x="1290" y="400" width="180" height="37.78" as="geometry" />
        </mxCell>
        <mxCell id="E0kQeSZqlp2RZMd9F31j-119" value="nodeGroup:&amp;nbsp;&lt;div&gt;THREE.Group&lt;/div&gt;" style="rounded=0;whiteSpace=wrap;html=1;" vertex="1" parent="1">
          <mxGeometry x="1290" y="450" width="180" height="37.78" as="geometry" />
        </mxCell>
        <mxCell id="E0kQeSZqlp2RZMd9F31j-121" value="debugEl:&amp;nbsp;&lt;div&gt;THREE.Group&lt;/div&gt;" style="rounded=0;whiteSpace=wrap;html=1;" vertex="1" parent="1">
          <mxGeometry x="1290" y="500" width="180" height="37.78" as="geometry" />
        </mxCell>
        <mxCell id="E0kQeSZqlp2RZMd9F31j-122" value="attachResize( )" style="shape=step;perimeter=stepPerimeter;whiteSpace=wrap;html=1;fixedSize=1;" vertex="1" parent="1">
          <mxGeometry x="1290" y="550" width="180" height="40" as="geometry" />
        </mxCell>
        <mxCell id="fcFkuBXIPpViCMy556D--3" value="SCENE.JS" style="shape=cube;whiteSpace=wrap;html=1;boundedLbl=1;backgroundOutline=1;darkOpacity=0.05;darkOpacity2=0.1;" vertex="1" parent="1">
          <mxGeometry x="1060" y="-80" width="180" height="80" as="geometry" />
        </mxCell>
      </root>
    </mxGraphModel>
  </diagram>
</mxfile>
